<svg xmlns="http://www.w3.org/2000/svg" width="16" height="16" viewBox="0 0 16 16"><defs><style>.a{fill:none;}.b{fill:#fff;isolation:isolate;}</style></defs><path class="a" d="M0,0H16V16H0Z"/><path class="b" d="M651.284,450.215c-.22-.233-2.459-2.44-3.112-3.1s-1.053-.286-1.153-.226l-1.619.931a.663.663,0,0,0,.34,1.243c.26.047,1.366-.685,1.48-.751s.133-.106.313.04,1.26,1.257,1.26,1.257a.269.269,0,0,1-.013.372.281.281,0,0,1-.173.067h-8.89a.285.285,0,0,1-.18-.067.268.268,0,0,1-.007-.372s1.08-1.11,1.26-1.257.2-.106.313-.04,1.213.8,1.479.751a.666.666,0,0,0,.34-1.243l-1.619-.931c-.107-.06-.5-.425-1.153.226s-2.9,2.865-3.112,3.1a.6.6,0,0,0-.207.5l.666,4.661a.664.664,0,0,0,.626.665l3.979.007a.354.354,0,0,0,.167-.08c.413-.425,1.479-1.489,1.893-1.895l1.893,1.888a.247.247,0,0,0,.16.08H650.2a.669.669,0,0,0,.626-.665l.666-4.661A.643.643,0,0,0,651.284,450.215Zm-1.753,4.288a.263.263,0,0,1-.253.206h-2.786a.246.246,0,0,1-.18-.073l-1.759-1.755a.556.556,0,0,0-.393-.166.534.534,0,0,0-.393.166l-1.759,1.755a.27.27,0,0,1-.18.073h-2.786a.252.252,0,0,1-.253-.206l-.566-2.812a.253.253,0,0,1,.207-.3c.007-.013,2.872-.013,5.731-.013s5.725,0,5.731.013a.267.267,0,0,1,.207.3Z" transform="translate(-636.158 -443.389)"/></svg>