<svg id="GOOG" xmlns="http://www.w3.org/2000/svg" width="32" height="32.001" viewBox="0 0 32 32.001">
  <path id="Прямоугольник_114" data-name="Прямоугольник 114" d="M0,0H32a0,0,0,0,1,0,0V20A12,12,0,0,1,20,32H12A12,12,0,0,1,0,20V0A0,0,0,0,1,0,0Z" transform="translate(0 0.001)" fill="#e6e6eb"/>
  <path id="Вычитание_4" data-name="Вычитание 4" d="M-3206-6659h-8a11.92,11.92,0,0,1-8.485-3.515A11.92,11.92,0,0,1-3226-6671v-20h32v20a11.92,11.92,0,0,1-3.514,8.485A11.92,11.92,0,0,1-3206-6659Zm-18-30v18a10.011,10.011,0,0,0,10,10h8a10.011,10.011,0,0,0,10-10v-18Z" transform="translate(3226 6691.001)" fill="#e6e6eb"/>
</svg>
