<svg xmlns="http://www.w3.org/2000/svg" width="31.999" height="32" viewBox="0 0 31.999 32"><defs><style>.a,.b{fill:#ce58e7;}.a{opacity:0;}</style></defs><g transform="translate(-768.001 -736)"><path class="a" d="M0,0H20a0,0,0,0,1,0,0V18a6,6,0,0,1-6,6H6a6,6,0,0,1-6-6V0A0,0,0,0,1,0,0Z" transform="translate(774 738)"/><path class="b" d="M-3206-6659h-8a11.914,11.914,0,0,1-8.485-3.515A11.92,11.92,0,0,1-3226-6671v-12h4v2h-2v10a10.011,10.011,0,0,0,10,10h8a10.011,10.011,0,0,0,10-10v-10h-2v-2h4v12a11.92,11.92,0,0,1-3.515,8.485A11.92,11.92,0,0,1-3206-6659Z" transform="translate(3994 7427)"/><path class="b" d="M-3210-6659h-8a8.009,8.009,0,0,1-8-8v-20h24v20A8.009,8.009,0,0,1-3210-6659Zm-14-26v18a6.006,6.006,0,0,0,6,6h8a6.007,6.007,0,0,0,6-6v-18Z" transform="translate(3998 7423)"/></g></svg>