<svg xmlns="http://www.w3.org/2000/svg" xmlns:xlink="http://www.w3.org/1999/xlink" width="72" height="72" viewBox="0 0 72 72"><defs><style>.a{fill:url(#a);}.b{fill:#fff;}.c{fill:#000068;stroke:#000068;stroke-miterlimit:10;stroke-width:0.25px;}</style><linearGradient id="a" x1="0.5" y1="0.011" x2="0.5" y2="0.947" gradientUnits="objectBoundingBox"><stop offset="0" stop-color="#ce58e7"/><stop offset="1" stop-color="#52badb"/></linearGradient></defs><g transform="translate(-6.866 -8)"><path class="a" d="M15.188,0H56.813A15.187,15.187,0,0,1,72,15.188V56.813A15.187,15.187,0,0,1,56.813,72H15.188A15.187,15.187,0,0,1,0,56.813V15.188A15.187,15.187,0,0,1,15.188,0Z" transform="translate(6.866 8)"/><g transform="translate(23.169 23.229)"><rect class="b" width="10.496" height="37.816" rx="5.248"/><rect class="b" width="10.496" height="37.816" rx="5.248" transform="translate(28.899)"/><rect class="b" width="10.496" height="28.966" rx="5.248" transform="translate(14.722 8.851)"/></g><g transform="translate(22.246 63.969)"><path class="c" d="M34.218,112.755c0-.42,0-.835-.01-1.256h1.026a5.988,5.988,0,0,1,.032.69,1.722,1.722,0,0,1,1.549-.824,1.458,1.458,0,0,1,1.487.9,1.822,1.822,0,0,1,1.663-.9c.974,0,1.76.569,1.76,2.009v2.988H40.672v-2.955c0-.532-.175-1.187-.986-1.187-.72,0-1.182.482-1.182,1.472v2.671H37.447v-2.987c0-.557-.193-1.156-.991-1.156-.845,0-1.181.652-1.181,1.525v2.618H34.218Z" transform="translate(-34.208 -109.191)"/><path class="c" d="M50.3,107.5h1.065v1.13H50.3Zm0,2.309h1.065v4.863H50.3Z" transform="translate(-41.248 -107.5)"/><path class="c" d="M54.847,112.826c0-.439,0-.883-.01-1.322h1.038c.019.15.037.669.037,1.065a1.969,1.969,0,0,1,1.946-1.194v1a1.794,1.794,0,0,0-1.946,2.023v1.968H54.847Z" transform="translate(-43.233 -109.195)"/><path class="c" d="M66.435,113.93a2.641,2.641,0,0,1-5.28.005,2.641,2.641,0,0,1,5.28-.005Zm-4.191.005a1.584,1.584,0,0,0,1.554,1.713,1.523,1.523,0,0,0,1.539-1.7,1.574,1.574,0,0,0-1.559-1.732A1.535,1.535,0,0,0,62.244,113.935Z" transform="translate(-45.997 -109.191)"/><path class="c" d="M72.581,112.755c0-.42,0-.835-.01-1.256H73.6a6.109,6.109,0,0,1,.033.69,1.72,1.72,0,0,1,1.549-.824,1.457,1.457,0,0,1,1.487.9,1.823,1.823,0,0,1,1.663-.9c.974,0,1.76.569,1.76,2.009v2.988H79.035v-2.955c0-.532-.175-1.187-.986-1.187-.719,0-1.182.482-1.182,1.472v2.671H75.81v-2.987c0-.557-.193-1.156-.991-1.156-.845,0-1.181.652-1.181,1.525v2.618H72.581Z" transform="translate(-50.992 -109.191)"/><path class="c" d="M92.644,115.121c0,.512.029,1.132.043,1.242H91.675a4.685,4.685,0,0,1-.057-.672,1.851,1.851,0,0,1-1.812.806c-1.364,0-1.877-.827-1.877-1.568,0-1.252,1.128-1.6,2.527-1.6H91.6V113.1c0-.5-.214-.952-1.172-.952-.867,0-1.068.371-1.157.776H88.206c.054-.634.484-1.554,2.215-1.554,1.852,0,2.222.9,2.222,1.7ZM91.6,114.056c-.141,0-.47,0-1.121,0-1.034,0-1.505.237-1.505.823,0,.443.332.813,1.079.813,1.182,0,1.547-.665,1.547-1.453Z" transform="translate(-57.711 -109.191)"/><path class="c" d="M99.021,111.6c.8.941,1.288,1.509,1.483,1.751h.014c.257-.322.766-.94,1.463-1.751h1.171l-2.044,2.346,2.14,2.517h-1.261c-.735-.884-1.284-1.527-1.533-1.823h-.019c-.195.242-.673.831-1.5,1.823H97.749L99.828,114l-2.076-2.4Z" transform="translate(-62.007 -109.296)"/></g></g></svg>