<svg xmlns="http://www.w3.org/2000/svg" width="760" height="32" viewBox="0 0 760 32"><defs><style>.a{fill:#cbcbcb;}</style></defs><path class="a" d="M-2307.062-6659h-5.339c-8.507-2.223-18.325-4.39-29.183-6.441-14.9-2.813-32.011-5.459-50.873-7.865-78.683-10.036-183.308-15.564-294.6-15.564s-215.917,5.528-294.6,15.564c-18.865,2.407-35.982,5.052-50.873,7.865-10.847,2.048-20.666,4.215-29.183,6.441h-5.345c9.335-2.648,20.337-5.215,32.7-7.63,15-2.93,32.211-5.683,51.143-8.18s39.78-4.77,61.985-6.75c22.376-1.995,46.313-3.709,71.145-5.1,51.65-2.883,106.5-4.344,163.027-4.344s111.378,1.461,163.03,4.344c24.777,1.382,48.713,3.1,71.145,5.1,22.2,1.98,43.059,4.251,61.985,6.75s36.134,5.249,51.144,8.18c12.368,2.416,23.367,4.983,32.694,7.628Z" transform="translate(3067.062 6691.001)"/></svg>